<?xml version="1.0" encoding="UTF-8" standalone="no"?>
<!-- Created with Inkscape (http://www.inkscape.org/) -->

<svg
   version="1.1"
   id="svg1"
   width="40"
   height="40"
   viewBox="0 0 40 40"
   sodipodi:docname="pluginIcon.svg"
   inkscape:version="1.3.2 (091e20e, 2023-11-25, custom)"
   xmlns:inkscape="http://www.inkscape.org/namespaces/inkscape"
   xmlns:sodipodi="http://sodipodi.sourceforge.net/DTD/sodipodi-0.dtd"
   xmlns="http://www.w3.org/2000/svg"
   xmlns:svg="http://www.w3.org/2000/svg">
  <defs
     id="defs1" />
  <sodipodi:namedview
     id="namedview1"
     pagecolor="#ffffff"
     bordercolor="#000000"
     borderopacity="0.25"
     inkscape:showpageshadow="2"
     inkscape:pageopacity="0.0"
     inkscape:pagecheckerboard="0"
     inkscape:deskcolor="#d1d1d1"
     inkscape:zoom="12.672679"
     inkscape:cx="18.938379"
     inkscape:cy="40.9937"
     inkscape:window-width="2560"
     inkscape:window-height="1361"
     inkscape:window-x="-9"
     inkscape:window-y="-9"
     inkscape:window-maximized="1"
     inkscape:current-layer="g1" />
  <g
     inkscape:groupmode="layer"
     inkscape:label="Image"
     id="g1">
    <g
       id="g2"
       transform="matrix(-0.00241733,0,0,0.00244141,39.991206,0.07890991)">
      <path
         style="fill:#fdfefd"
         d="M 0,8192 V 0 h 8192 8192 v 8192 8192 H 8192 0 Z m 8960,7552 v -128 h 128 128 v -256 -256 h 128 128 v -128 -128 h 384 384 v -128 -128 h 256 256 v -128 -128 h 128 128 v -128 -128 h 128 128 v -128 -128 h 128 128 v -128 -128 h 128 128 v -128 -128 h 128 128 v -128 -128 h 128 128 v -128 -128 h 128 128 v -128 -128 h 128 128 v -128 -128 h 128 128 v -128 -128 h 256 256 v -128 -128 h 128 128 v -128 -128 h 128 128 v -128 -128 h 128 128 v -128 -128 h 128 128 v -256 -256 h 128 128 v -512 -512 h -128 -128 v -128 -128 h 128 128 v -128 -128 h 128 128 v -256 -256 h 128 128 v -384 -384 h 128 128 v -768 -768 h -128 -128 v -128 -128 h -128 -128 v -128 -128 h -128 -128 v -128 -128 h -128 -128 v -128 -128 h -128 -128 v -128 -128 h -128 -128 v -384 -384 h -128 -128 v -256 -256 h -128 -128 v -256 -256 h -128 -128 v -128 -128 h -128 -128 v -256 -256 h -128 -128 v -128 -128 h -128 -128 v -128 -128 h -128 -128 v -128 -128 h -128 -128 v -128 -128 h -256 -256 v -128 -128 h -256 -256 V 896 768 h -512 -512 V 640 512 H 9216 8448 V 640 768 H 8320 8192 V 640 512 h -768 -768 v 128 128 h -512 -512 v 128 128 h -256 -256 v 128 128 h -256 -256 v 128 128 h -128 -128 v 128 128 h -128 -128 v 128 128 h -128 -128 v 128 128 h -128 -128 v 256 256 h -128 -128 v 128 128 h -128 -128 v 256 256 h -128 -128 v 256 256 h -128 -128 v 384 384 h -128 -128 v 128 128 h -128 -128 v 128 128 h -128 -128 v 128 128 h -128 -128 v 128 128 h -128 -128 v 128 128 h -128 -128 v 768 768 h 128 128 v 384 384 h 128 128 v 256 256 h 128 128 v 128 128 h 128 128 v 128 128 h -128 -128 v 512 512 h 128 128 v 256 256 h 128 128 v 128 128 h 128 128 v 128 128 h 128 128 v 128 128 h 128 128 v 128 128 h 256 256 v 128 128 h 128 128 v 128 128 h 128 128 v 128 128 h 128 128 v 128 128 h 128 128 v 128 128 h 128 128 v 128 128 h 128 128 v 128 128 h 128 128 v 128 128 h 128 128 v 128 128 h 128 128 v 128 128 h 256 256 v 128 128 h 384 384 v 128 128 h 128 128 v 256 256 h 128 128 v 128 128 h 640 640 z"
         id="path9" />
      <path
         style="fill:#7ee482"
         d="m 7680,12416 v -384 H 7552 7424 V 9728 7424 h 896 896 v 2304 2304 h -128 -128 v 384 384 h -640 -640 z m -768,-1024 v -128 h -128 -128 v -128 -128 h -128 -128 v -128 -128 h -128 -128 v -128 -128 h 128 128 v -128 -128 h -128 -128 v -128 -128 h 128 128 v -128 -128 h -128 -128 v -128 -128 h 128 128 v -128 -128 h -128 -128 v -128 -128 h 128 128 v -128 -128 h -128 -128 v -128 -128 h 128 128 v -128 -128 h -128 -128 v -128 -128 h 128 128 v 128 128 h 128 128 v -128 -128 h 128 128 v -128 -128 h 128 128 v 128 128 h -128 -128 v 128 128 h 128 128 v 128 128 h -128 -128 v 128 128 h 128 128 v 128 128 h -128 -128 v 128 128 h 128 128 v 128 128 h -128 -128 v 128 128 h 128 128 v 128 128 h -128 -128 v 128 128 h 128 128 v 128 128 h -128 -128 v 128 128 h 128 128 v 128 128 h -128 -128 v 128 128 h 128 128 v 128 128 h -128 -128 z m 0,-512 v -128 h -128 -128 v -128 -128 h 128 128 v -128 -128 h -128 -128 v -128 -128 h 128 128 v -128 -128 h -128 -128 v -128 -128 h 128 128 v -128 -128 h -128 -128 v -128 -128 h 128 128 v -128 -128 h -128 -128 v -128 -128 h 128 128 v -128 -128 h -128 -128 v 128 128 h -128 -128 v 128 128 h 128 128 v 128 128 h -128 -128 v 128 128 h 128 128 v 128 128 h -128 -128 v 128 128 h 128 128 v 128 128 h -128 -128 v 128 128 h 128 128 v 128 128 h -128 -128 v 128 128 h 128 128 v 128 128 h 128 128 z m 2560,512 v -128 h 128 128 v -128 -128 h -128 -128 v -128 -128 h 128 128 v -128 -128 h -128 -128 v -128 -128 h 128 128 v -128 -128 h -128 -128 v -128 -128 h 128 128 v -128 -128 h -128 -128 v -128 -128 h 128 128 v -128 -128 h -128 -128 v -128 -128 h 128 128 v -128 -128 h -128 -128 v -128 -128 h 128 128 v -128 -128 h -128 -128 v -128 -128 h 128 128 v 128 128 h 128 128 v 128 128 h 128 128 v -128 -128 h 128 128 v 128 128 h -128 -128 v 128 128 h 128 128 v 128 128 h -128 -128 v 128 128 h 128 128 v 128 128 h -128 -128 v 128 128 h 128 128 v 128 128 h -128 -128 v 128 128 h 128 128 v 128 128 h -128 -128 v 128 128 h 128 128 v 128 128 h -128 -128 v 128 128 h -128 -128 v 128 128 h -128 -128 v 128 128 h -128 -128 z m 512,-512 v -128 h 128 128 v -128 -128 h -128 -128 v -128 -128 h 128 128 v -128 -128 h -128 -128 v -128 -128 h 128 128 v -128 -128 h -128 -128 v -128 -128 h 128 128 v -128 -128 h -128 -128 v -128 -128 h 128 128 v -128 -128 h -128 -128 v -128 -128 h -128 -128 v 128 128 h 128 128 v 128 128 h -128 -128 v 128 128 h 128 128 v 128 128 h -128 -128 v 128 128 h 128 128 v 128 128 h -128 -128 v 128 128 h 128 128 v 128 128 h -128 -128 v 128 128 h 128 128 v 128 128 h -128 -128 v 128 128 h 128 128 z"
         id="path8" />
      <path
         style="fill:#fe7700"
         d="m 7936,14720 v -384 h 384 384 v 384 384 h -384 -384 z m -256,-1024 v -128 h 640 640 v 128 128 h -640 -640 z m 0,-512 v -128 h 640 640 v 128 128 H 8320 7680 Z M 3584,11392 v -128 h -128 -128 v -128 -128 h -128 -128 v -128 -128 h -128 -128 v -128 -128 h -128 -128 v -128 -128 h -128 -128 v -128 -128 h -128 -128 v -256 -256 h 128 128 v 128 128 h 128 128 v 128 128 h 128 128 v 128 128 h 128 128 v 128 128 h 128 128 v 128 128 h 128 128 v 128 128 h 128 128 v 256 256 h -128 -128 z m 9216,-128 v -256 h 128 128 v -128 -128 h 128 128 v -128 -128 h 128 128 v -128 -128 h 128 128 v -128 -128 h 128 128 v -128 -128 h 128 128 v -128 -128 h 128 128 v 256 256 h -128 -128 v 128 128 h -128 -128 v 128 128 h -128 -128 v 128 128 h -128 -128 v 128 128 h -128 -128 v 128 128 h -128 -128 v 128 128 h -128 -128 z M 1280,6912 v -768 h 128 128 v -128 -128 h 128 128 v -128 -128 h 128 128 v -128 -128 h 128 128 v -128 -128 h 128 128 v -128 -128 h 128 128 v -384 -384 h 128 128 v -256 -256 h 128 128 v 384 384 h 128 128 v -768 -768 h 128 128 v -256 -256 h 128 128 v -128 -128 h 128 128 v -128 -128 h 128 128 v -128 -128 h 256 256 v -128 -128 h 128 128 v 512 512 h 128 128 v -512 -512 h 128 128 v -128 -128 h 384 384 V 896 768 h 768 768 v 512 512 h -128 -128 v -256 -256 h -128 -128 v -128 -128 h -512 -512 v 128 128 h -384 -384 v 512 512 h -128 -128 v 512 512 H 5504 5376 V 2816 2304 H 5248 5120 V 3328 4352 H 4992 4864 V 3328 2304 h 128 128 v -256 -256 h -256 -256 v 128 128 h -128 -128 v 128 128 h -128 -128 v 256 256 h -128 -128 v 768 768 h -128 -128 v 384 384 h -128 -128 v -384 -384 h -128 -128 v 640 640 h -128 -128 v 384 384 h 128 128 v 384 384 h -128 -128 v -256 -256 h -128 -128 v -384 -384 h -256 -256 v 128 128 h -128 -128 v 128 128 h -128 -128 v 640 640 H 1408 1280 Z M 2816,5376 v -256 h -128 -128 v 256 256 h 128 128 z m 3584,2176 v -128 h -128 -128 v -128 -128 h 384 384 v -128 -128 h 640 640 v 128 128 h -640 -640 v 128 128 h -128 -128 v 128 128 h -128 -128 z m 3584,0 v -128 h -128 -128 v -128 -128 h -640 -640 v -128 -128 h 640 640 v 128 128 h 384 384 v 128 128 h -128 -128 v 128 128 h -128 -128 z m 5120,-512 v -640 h -128 -128 v -128 -128 h -128 -128 v -128 -128 h -256 -256 v 384 384 h -128 -128 v 256 256 h -128 -128 v -384 -384 h 128 128 v -384 -384 h -128 -128 v -640 -640 h -128 -128 v 384 384 h -128 -128 v -384 -384 h -128 -128 v -768 -768 h -128 -128 v -256 -256 h -128 -128 v -128 -128 h -128 -128 v -128 -128 h -256 -256 v 256 256 h 128 128 v 1024 1024 h -128 -128 V 3328 2304 h -128 -128 v 512 512 h -128 -128 v -512 -512 h -128 -128 v -512 -512 h -384 -384 v -128 -128 h -512 -512 v 128 128 h -128 -128 v 256 256 H 8576 8448 V 1280 768 h 768 768 v 128 128 h 384 384 v 128 128 h 128 128 v 512 512 h 128 128 v -512 -512 h 128 128 v 128 128 h 256 256 v 128 128 h 128 128 v 128 128 h 128 128 v 128 128 h 128 128 v 256 256 h 128 128 v 768 768 h 128 128 v -384 -384 h 128 128 v 256 256 h 128 128 v 384 384 h 128 128 v 128 128 h 128 128 v 128 128 h 128 128 v 128 128 h 128 128 v 128 128 h 128 128 v 128 128 h 128 128 v 768 768 h -128 -128 z M 14080,5376 v -256 h -128 -128 v 256 256 h 128 128 z M 5632,7296 v -128 h -384 -384 v -128 -128 h -256 -256 v -128 -128 h -256 -256 v -128 -128 h 384 384 v 128 128 h 256 256 v 128 128 h 384 384 v 256 256 h -128 -128 z m 5120,-128 v -256 h 384 384 v -128 -128 h 256 256 v -128 -128 h 384 384 v 128 128 h -256 -256 v 128 128 h -256 -256 v 128 128 h -384 -384 v 128 128 h -128 -128 z"
         id="path7" />
      <path
         style="fill:#44cb4a"
         d="m 6912,11648 v -128 h -128 -128 v -128 -128 h -128 -128 v -128 -128 h -128 -128 v -128 -128 h -128 -128 v -128 -128 h -128 -128 v -128 -128 h -128 -128 v -128 -128 h -128 -128 v -128 -128 h -128 -128 v -128 -128 h -128 -128 v -128 -128 h -128 -128 v -128 -128 h -128 -128 v -128 -128 h 128 128 v -128 -128 h -128 -128 v -128 -128 h 128 128 v -128 -128 h -128 -128 v -128 -128 h 128 128 v -128 -128 h -128 -128 v -128 -128 h 128 128 v 128 128 h 128 128 v -128 -128 h 128 128 v 128 128 h 384 384 v 128 128 h 384 384 v 128 128 h 128 128 v 128 128 h 128 128 v -128 -128 h 128 128 v -128 -128 h -128 -128 v -128 -128 h 256 256 v 2176 2176 h -256 -256 z m 256,-256 v -128 h -128 -128 v -128 -128 h 128 128 v -128 -128 h -128 -128 v -128 -128 h 128 128 v -128 -128 h -128 -128 v -128 -128 h 128 128 v -128 -128 h -128 -128 v -128 -128 h 128 128 v -128 -128 h -128 -128 v -128 -128 h 128 128 v -128 -128 h -128 -128 v -128 -128 h 128 128 v -128 -128 h -128 -128 v 128 128 h -128 -128 v -128 -128 h -128 -128 v -128 -128 h -128 -128 v 128 128 h 128 128 v 128 128 h -128 -128 v 128 128 h 128 128 v 128 128 h -128 -128 v 128 128 h 128 128 v 128 128 h -128 -128 v 128 128 h 128 128 v 128 128 h -128 -128 v 128 128 h 128 128 v 128 128 h -128 -128 v 128 128 h 128 128 v 128 128 h 128 128 v 128 128 h 128 128 v 128 128 h 128 128 z m -512,-512 v -128 h -128 -128 v -128 -128 h 128 128 v -128 -128 h -128 -128 v -128 -128 h 128 128 v -128 -128 h -128 -128 v -128 -128 h 128 128 v -128 -128 h -128 -128 v -128 -128 h 128 128 v -128 -128 h -128 -128 v -128 -128 h 128 128 v 128 128 h 128 128 v 128 128 h -128 -128 v 128 128 h 128 128 v 128 128 h -128 -128 v 128 128 h 128 128 v 128 128 h -128 -128 v 128 128 h 128 128 v 128 128 h -128 -128 v 128 128 h 128 128 v 128 128 H 6784 6656 Z M 4608,8832 v -128 h -128 -128 v 128 128 h 128 128 z m 0,-512 v -128 h -128 -128 v 128 128 h 128 128 z m 0,-512 v -128 h -128 -128 v 128 128 h 128 128 z M 9216,9600 V 7424 h 256 256 v 128 128 h -128 -128 v 128 128 h 128 128 v 128 128 h 128 128 v -128 -128 h 128 128 v -128 -128 h 384 384 v -128 -128 h 384 384 v -128 -128 h 128 128 v 128 128 h 128 128 v -128 -128 h 128 128 v 128 128 h -128 -128 v 128 128 h 128 128 v 128 128 h -128 -128 v 128 128 h 128 128 v 128 128 h -128 -128 v 128 128 h 128 128 v 128 128 h -128 -128 v 128 128 h -128 -128 v 128 128 h -128 -128 v 128 128 h -128 -128 v 128 128 h -128 -128 v 128 128 h -128 -128 v 128 128 h -128 -128 v 128 128 h -128 -128 v 128 128 h -128 -128 v 128 128 h -128 -128 v 128 128 h -128 -128 v 128 128 h -256 -256 z m 512,1792 v -128 h 128 128 v -128 -128 h 128 128 v -128 -128 h 128 128 v -128 -128 h -128 -128 v -128 -128 h 128 128 v -128 -128 h -128 -128 v -128 -128 h 128 128 v -128 -128 h -128 -128 v -128 -128 h 128 128 v -128 -128 h -128 -128 v -128 -128 h 128 128 v -128 -128 h -128 -128 v -128 -128 h 128 128 v -128 -128 h -128 -128 v 128 128 h -128 -128 v 128 128 h -128 -128 v -128 -128 h -128 -128 v 128 128 h 128 128 v 128 128 h -128 -128 v 128 128 h 128 128 v 128 128 h -128 -128 v 128 128 h 128 128 v 128 128 h -128 -128 v 128 128 h 128 128 v 128 128 h -128 -128 v 128 128 h 128 128 v 128 128 h -128 -128 v 128 128 h 128 128 v 128 128 h -128 -128 v 128 128 h 128 128 z m 0,-512 v -128 h 128 128 v -128 -128 h -128 -128 v -128 -128 h 128 128 v -128 -128 h -128 -128 v -128 -128 h 128 128 v -128 -128 h -128 -128 v -128 -128 h 128 128 v -128 -128 h -128 -128 v -128 -128 h 128 128 v -128 -128 h 128 128 v 128 128 h -128 -128 v 128 128 h 128 128 v 128 128 h -128 -128 v 128 128 h 128 128 v 128 128 h -128 -128 v 128 128 h 128 128 v 128 128 h -128 -128 v 128 128 h 128 128 v 128 128 h -128 -128 v 128 128 h -128 -128 z m 2560,-2048 v -128 h -128 -128 v 128 128 h 128 128 z m 0,-512 v -128 h -128 -128 v 128 128 h 128 128 z m 0,-512 v -128 h -128 -128 v 128 128 h 128 128 z"
         id="path6" />
      <path
         style="fill:#fe3500"
         d="m 7680,15360 v -256 h 128 128 v 128 128 h 384 384 v -128 -128 h 128 128 v 256 256 h -640 -640 z m -512,-1024 v -256 h 128 128 v 256 256 h -128 -128 z m 2048,0 v -256 h 128 128 v 256 256 h -128 -128 z m -2304,-896 v -384 h -128 -128 v -128 -128 h -128 -128 v -128 -128 h -128 -128 v -128 -128 h -128 -128 v -128 -128 h -128 -128 v -128 -128 h -128 -128 v -128 -128 h -128 -128 v -128 -128 h -256 -256 v -128 -128 h -128 -128 v -128 -128 h -128 -128 v 256 256 h -128 -128 v -128 -128 h -128 -128 v -128 -128 h -128 -128 v -128 -128 h -128 -128 v -128 -128 h -128 -128 v -128 -128 h -128 -128 v -128 -128 h -128 -128 v -128 -128 h 128 128 v 128 128 h 256 256 v 128 128 h 128 128 V 8192 6400 h -128 -128 v -384 -384 h 128 128 v -256 -256 h 128 128 v -384 -384 h 128 128 v -768 -768 h 128 128 v -256 -256 h 128 128 v -128 -128 h 128 128 v -128 -128 h 256 256 v 256 256 h -128 -128 v 1024 1024 h 128 128 v 640 640 h 128 128 V 4480 3328 h 128 128 v -512 -512 h 128 128 v -512 -512 h 384 384 v -128 -128 h 512 512 v 128 128 h 128 128 v 256 256 h 128 128 v 2560 2560 h -640 -640 v 128 128 h -384 -384 v -384 -384 h -128 -128 v 256 256 h -384 -384 v -128 -128 h -256 -256 v -128 -128 h -384 -384 v 256 256 h -128 -128 v 1152 1152 h 128 128 v 128 128 h 128 128 v 128 128 h 128 128 v 128 128 h 128 128 v 128 128 h 128 128 v 128 128 h 128 128 v 128 128 h 128 128 v 128 128 h 128 128 v 128 128 h 128 128 v 128 128 h 128 128 v 128 128 h 128 128 v 128 128 h 128 128 v 128 128 h 128 128 v 128 128 h 128 128 v 640 640 H 7040 6912 Z M 4096,10624 v -128 h -128 -128 v -128 -128 h -128 -128 v -128 -128 h -128 -128 v 128 128 h 128 128 v 128 128 h 128 128 v 128 128 h 128 128 z M 5888,6144 v -256 h -128 -128 v -128 -128 h -128 -128 v 128 128 h 128 128 v 256 256 h 128 128 z m 3584,7040 v -640 h 128 128 v -128 -128 h 128 128 v -128 -128 h 128 128 v -128 -128 h 128 128 v -128 -128 h 128 128 v -128 -128 h 128 128 v -128 -128 h 128 128 v -128 -128 h 128 128 v -128 -128 h 128 128 v -128 -128 h 128 128 v -128 -128 h 128 128 v -128 -128 h 128 128 v -128 -128 h 128 128 v -128 -128 h 128 128 V 8064 6912 h -128 -128 v -256 -256 h -384 -384 v 128 128 h -256 -256 v 128 128 h -384 -384 v -256 -256 h -128 -128 v 384 384 h -384 -384 V 7040 6912 H 9088 8448 V 4352 1792 h 128 128 v -256 -256 h 128 128 v -128 -128 h 512 512 v 128 128 h 384 384 v 512 512 h 128 128 v 512 512 h 128 128 v 1152 1152 h 128 128 v -640 -640 h 128 128 V 3328 2304 h -128 -128 v -256 -256 h 256 256 v 128 128 h 128 128 v 128 128 h 128 128 v 256 256 h 128 128 v 768 768 h 128 128 v 384 384 h 128 128 v 256 256 h 128 128 v 384 384 h -128 -128 v 1792 1792 h 128 128 v -128 -128 h 256 256 v -128 -128 h 128 128 v 128 128 h -128 -128 v 128 128 h -128 -128 v 128 128 h -128 -128 v 128 128 h -128 -128 v 128 128 h -128 -128 v 128 128 h -128 -128 v 128 128 h -128 -128 v -256 -256 h -128 -128 v 128 128 h -128 -128 v 128 128 h -256 -256 v 128 128 h -128 -128 v 128 128 h -128 -128 v 128 128 h -128 -128 v 128 128 h -128 -128 v 128 128 h -128 -128 v 128 128 h -128 -128 v 128 128 h -128 -128 v 384 384 h -128 -128 z m 3328,-2560 v -128 h 128 128 v -128 -128 h 128 128 v -128 -128 h -128 -128 v 128 128 h -128 -128 v 128 128 h -128 -128 v 128 128 h 128 128 z M 11008,6144 v -256 h 128 128 v -128 -128 h -128 -128 v 128 128 h -128 -128 v 256 256 h 128 128 z M 2304,8832 v -128 h -128 -128 v -128 -128 h -128 -128 v -128 -128 h -128 -128 v -896 -896 h 128 128 v -128 -128 h 128 128 v -128 -128 h 256 256 v 384 384 h 128 128 v 256 256 h 128 128 v 384 384 h -128 -128 v 384 384 h -128 -128 v 128 128 h -128 -128 z m 11776,0 v -128 h -128 -128 v -384 -384 h -128 -128 v -384 -384 h 128 128 v -256 -256 h 128 128 v -384 -384 h 256 256 v 128 128 h 128 128 v 128 128 h 128 128 v 896 896 h -128 -128 v 128 128 h -128 -128 v 128 128 h -128 -128 v 128 128 h -128 -128 z"
         id="path5" />
      <path
         style="fill:#b72700"
         d="m 7424,14592 v -512 h -128 -128 v -768 -768 h -128 -128 v -128 -128 h -128 -128 v -128 -128 h -128 -128 v -128 -128 h -128 -128 v -128 -128 h -128 -128 v -128 -128 h -128 -128 v -128 -128 h -128 -128 v -128 -128 h -128 -128 v -128 -128 h -128 -128 v -128 -128 h -128 -128 v -128 -128 H 4480 4352 V 9856 9728 H 4224 4096 V 9600 9472 H 3968 3840 V 9344 9216 H 3712 3584 V 8064 6912 h 128 128 v 1024 1024 h 128 128 v 128 128 h 128 128 v 128 128 h 128 128 v 128 128 h 128 128 v 128 128 h 128 128 v 128 128 h 128 128 v 128 128 h 128 128 v 128 128 h 128 128 v 128 128 h 128 128 v 128 128 h 128 128 v 128 128 h 128 128 v 128 128 h 128 128 v 128 128 h 256 256 v 1024 1024 h 128 128 v 512 512 h -128 -128 z m 1536,0 v -512 h 128 128 v -1024 -1024 h 256 256 v -128 -128 h 128 128 v -128 -128 h 128 128 v -128 -128 h 128 128 v -128 -128 h 128 128 v -128 -128 h 128 128 v -128 -128 h 128 128 v -128 -128 h 128 128 v -128 -128 h 128 128 v -128 -128 h 128 128 v -128 -128 h 128 128 v -128 -128 h 128 128 v -128 -128 h 128 128 V 7936 6912 h 128 128 v 1152 1152 h -128 -128 v 128 128 h -128 -128 v 128 128 h -128 -128 v 128 128 h -128 -128 v 128 128 h -128 -128 v 128 128 h -128 -128 v 128 128 h -128 -128 v 128 128 h -128 -128 v 128 128 h -128 -128 v 128 128 h -128 -128 v 128 128 h -128 -128 v 128 128 h -128 -128 v 128 128 h -128 -128 v 128 128 h -128 -128 v 768 768 h -128 -128 v 512 512 h -128 -128 z m -1024,-384 v -128 h 384 384 v 128 128 H 8320 7936 Z M 3584,11904 v -128 h -256 -256 v -128 -128 h -128 -128 v -128 -128 h -128 -128 v -128 -128 h -128 -128 v -256 -256 h -128 -128 v -256 -256 h 128 128 v 128 128 h 128 128 v 128 128 h 128 128 v 128 128 h 128 128 v 128 128 h 128 128 v 128 128 h 128 128 v 128 128 h 128 128 v -128 -128 h 128 128 v -128 -128 h 128 128 v 256 256 h -128 -128 v 128 128 h -128 -128 v 128 128 h -128 -128 z m 9216,0 v -128 h -128 -128 v -128 -128 h -128 -128 v -256 -256 h 128 128 v 128 128 h 128 128 v 128 128 h 128 128 v -128 -128 h 128 128 v -128 -128 h 128 128 v -128 -128 h 128 128 v -128 -128 h 128 128 v -128 -128 h 128 128 v -128 -128 h 128 128 v 256 256 h -128 -128 v 256 256 h -128 -128 v 128 128 h -128 -128 v 128 128 h -128 -128 v 128 128 h -256 -256 v 128 128 h -128 -128 z M 2560,9344 v -128 h -256 -256 v -128 -128 h -128 -128 v -256 -256 h -128 -128 v -128 -128 h 128 128 v 128 128 h 128 128 v 128 128 h 128 128 v 128 128 h 128 128 v -128 -128 h 128 128 v -384 -384 h 128 128 v 768 768 h -256 -256 z m 11008,-640 v -768 h 128 128 v 384 384 h 128 128 v 128 128 h 128 128 v -128 -128 h 128 128 v -128 -128 h 128 128 v -128 -128 h 128 128 v 128 128 h -128 -128 v 256 256 h -128 -128 v 128 128 h -256 -256 v 128 128 h -256 -256 z"
         id="path4" />
      <path
         style="fill:#661f0c"
         d="m 6400,13440 v -128 h -128 -128 v -128 -128 h -128 -128 v -128 -128 h -128 -128 v -128 -128 h -128 -128 v -128 -128 h -128 -128 v -128 -128 h -128 -128 v -128 -128 h -128 -128 v -128 -128 h -128 -128 v -256 -256 h -128 -128 v -128 -128 h -128 -128 v -128 -128 h -128 -128 v -128 -128 h -128 -128 v -128 -128 H 3200 3072 V 8192 6400 h -128 -128 v -384 -384 h -128 -128 v -256 -256 h 128 128 v 256 256 h 128 128 v -640 -640 h 128 128 v -768 -768 h 128 128 v 768 768 h -128 -128 v 640 640 h -128 -128 v 384 384 h 128 128 v 1792 1792 h 128 128 v 128 128 h 128 128 v 128 128 h 128 128 v 128 128 h 128 128 v 128 128 h 128 128 v 256 256 h 256 256 v 128 128 h 128 128 v 128 128 h 128 128 v 128 128 h 128 128 v 128 128 h 128 128 v 128 128 h 128 128 v 128 128 h 128 128 v 256 256 h -128 -128 z m 3584,-128 v -256 h 128 128 v -128 -128 h 128 128 v -128 -128 h 128 128 v -128 -128 h 128 128 v -128 -128 h 128 128 v -128 -128 h 128 128 v -128 -128 h 256 256 v -256 -256 h 128 128 v -128 -128 h 128 128 v -128 -128 h 128 128 v -128 -128 h 128 128 v -128 -128 h 128 128 V 8192 6400 h 128 128 v -384 -384 h -128 -128 v -640 -640 h -128 -128 v -768 -768 h 128 128 v 768 768 h 128 128 v 640 640 h 128 128 v -256 -256 h 128 128 v -128 -128 h 128 128 v 128 128 h -128 -128 v 256 256 h -128 -128 v 384 384 h -128 -128 v 1792 1792 h -128 -128 v 128 128 h -128 -128 v 128 128 h -128 -128 v 128 128 h -128 -128 v 128 128 h -128 -128 v 256 256 h -128 -128 v 128 128 h -128 -128 v 128 128 h -128 -128 v 128 128 h -128 -128 v 128 128 h -128 -128 v 128 128 h -128 -128 v 128 128 h -128 -128 v 128 128 h -128 -128 v 128 128 h -128 -128 z M 5888,6912 V 6400 H 5760 5632 V 6144 5888 H 5504 5376 V 5760 5632 H 5248 5120 V 3968 2304 h 128 128 v -640 -640 h 128 128 v 640 640 h -128 -128 v 1664 1664 h 128 128 v 128 128 h 128 128 v 256 256 h 128 128 v 512 512 h -128 -128 z m 4608,0 v -512 h 128 128 v -256 -256 h 128 128 v -128 -128 h 128 128 V 3968 2304 h -128 -128 v -640 -640 h 128 128 v 640 640 h 128 128 v 1664 1664 h -128 -128 v 128 128 h -128 -128 v 256 256 h -128 -128 v 512 512 h -128 -128 z M 8192,3968 V 768 h 128 128 v 3200 3200 h -128 -128 z"
         id="path3" />
      <path
         style="fill:#140b09"
         d="m 7680,15744 v -128 h -128 -128 v -256 -256 h -128 -128 v -128 -128 h -384 -384 v -128 -128 h -256 -256 v -128 -128 h -128 -128 v -128 -128 h -128 -128 v -128 -128 h -128 -128 v -128 -128 h -128 -128 v -128 -128 h -128 -128 v -128 -128 h -128 -128 v -128 -128 h -128 -128 v -128 -128 h -128 -128 v -128 -128 h -128 -128 v -128 -128 h -256 -256 v -128 -128 h -128 -128 v -128 -128 h -128 -128 v -128 -128 h -128 -128 v -128 -128 h -128 -128 v -256 -256 h -128 -128 v -512 -512 h 128 128 v -128 -128 h -128 -128 v -128 -128 h -128 -128 v -256 -256 h -128 -128 v -384 -384 h -128 -128 v -768 -768 h 128 128 v -128 -128 h 128 128 v -128 -128 h 128 128 v -128 -128 h 128 128 v -128 -128 h 128 128 v -128 -128 h 128 128 v -384 -384 h 128 128 v -256 -256 h 128 128 v -256 -256 h 128 128 v 256 256 h -128 -128 v 256 256 h -128 -128 v 384 384 h -128 -128 v 128 128 h -128 -128 v 128 128 h -128 -128 v 128 128 h -128 -128 v 128 128 h -128 -128 v 128 128 h -128 -128 v 768 768 h 128 128 v 384 384 h 128 128 v 256 256 h 128 128 v 128 128 h 256 256 v 128 128 h 256 256 v 128 128 h -256 -256 v -128 -128 h -256 -256 v 512 512 h 128 128 v 256 256 h 128 128 v 128 128 h 128 128 v 128 128 h 128 128 v 128 128 h 256 256 v 128 128 h 128 128 v -128 -128 h 128 128 v -128 -128 h 256 256 v -128 -128 h 256 256 v 128 128 h 128 128 v 128 128 h 128 128 v 128 128 h 128 128 v 128 128 h 128 128 v 128 128 h 128 128 v 128 128 h 128 128 v 128 128 h 128 128 v 384 384 h 128 128 v 384 384 h 128 128 v 256 256 h 128 128 v -512 -512 h -128 -128 v -1024 -1024 h -256 -256 v -128 -128 h -128 -128 v -128 -128 h -128 -128 v -128 -128 h -128 -128 v -128 -128 h -128 -128 v -128 -128 h -128 -128 v -128 -128 h -128 -128 v -128 -128 h -128 -128 v -128 -128 H 4992 4864 V 9856 9728 H 4736 4608 V 9600 9472 H 4480 4352 V 9344 9216 H 4224 4096 V 9088 8960 H 3968 3840 V 7808 6656 h 256 256 v 128 128 h 256 256 v 128 128 h 384 384 v 128 128 h 384 384 v 128 128 h 128 128 v -128 -128 h 128 128 v -128 -128 h 1408 1408 v 128 128 h 128 128 v 128 128 h 128 128 v -128 -128 h 384 384 v -128 -128 h 384 384 v -128 -128 h 256 256 v -128 -128 h 256 256 v 1152 1152 h -128 -128 v 128 128 h -128 -128 v 128 128 h -128 -128 v 128 128 h -128 -128 v 128 128 h -128 -128 v 128 128 h -128 -128 v 128 128 h -128 -128 v 128 128 h -128 -128 v 128 128 h -128 -128 v 128 128 h -128 -128 v 128 128 h -128 -128 v 128 128 h -128 -128 v 128 128 h -256 -256 v 1024 1024 h -128 -128 v 512 512 h 128 128 v -256 -256 h 128 128 v -384 -384 h 128 128 v -384 -384 h 128 128 v -128 -128 h 128 128 v -128 -128 h 128 128 v -128 -128 h 128 128 v -128 -128 h 128 128 v -128 -128 h 128 128 v -128 -128 h 128 128 v -128 -128 h 256 256 v 128 128 h 256 256 v 128 128 h 128 128 v 128 128 h 128 128 v -128 -128 h 256 256 v -128 -128 h 128 128 v -128 -128 h 128 128 v -128 -128 h 128 128 v -256 -256 h 128 128 v -512 -512 h -256 -256 v 128 128 h -256 -256 v -128 -128 h 256 256 v -128 -128 h 256 256 v -128 -128 h 128 128 v -256 -256 h 128 128 v -384 -384 h 128 128 v -768 -768 h -128 -128 v -128 -128 h -128 -128 v -128 -128 h -128 -128 v -128 -128 h -128 -128 v -128 -128 h 128 128 v 128 128 h 128 128 v 128 128 h 128 128 v 128 128 h 128 128 v 128 128 h 128 128 v 768 768 h -128 -128 v 384 384 h -128 -128 v 256 256 h -128 -128 v 128 128 h -128 -128 v 128 128 h 128 128 v 512 512 h -128 -128 v 256 256 h -128 -128 v 128 128 h -128 -128 v 128 128 h -128 -128 v 128 128 h -128 -128 v 128 128 h -256 -256 v 128 128 h -128 -128 v 128 128 h -128 -128 v 128 128 h -128 -128 v 128 128 h -128 -128 v 128 128 h -128 -128 v 128 128 h -128 -128 v 128 128 h -128 -128 v 128 128 h -128 -128 v 128 128 h -128 -128 v 128 128 h -256 -256 v 128 128 h -384 -384 v 128 128 h -128 -128 v 256 256 h -128 -128 v 128 128 h -640 -640 z m 1280,-384 v -256 h -128 -128 v -512 -512 h -384 -384 v 512 512 h -128 -128 v 256 256 h 640 640 z m -1024,-128 v -128 h 384 384 v 128 128 h -384 -384 z m 1024,-1536 v -128 h -640 -640 v 128 128 h 640 640 z m -2304,-384 v -256 h -128 -128 v -128 -128 h -128 -128 v -128 -128 h -128 -128 v -128 -128 h -128 -128 v -128 -128 h -128 -128 v -128 -128 h -128 -128 v -128 -128 h -256 -256 v 128 128 h 128 128 v 128 128 h 128 128 v 128 128 h 128 128 v 128 128 h 128 128 v 128 128 h 128 128 v 128 128 h 128 128 v 128 128 h 128 128 v 128 128 h 128 128 z m 3584,128 v -128 h 128 128 v -128 -128 h 128 128 v -128 -128 h 128 128 v -128 -128 h 128 128 v -128 -128 h 128 128 v -128 -128 h 128 128 v -128 -128 h 128 128 v -128 -128 h -256 -256 v 128 128 h -128 -128 v 128 128 h -128 -128 v 128 128 h -128 -128 v 128 128 h -128 -128 v 128 128 h -128 -128 v 128 128 h -128 -128 v 256 256 h 128 128 z m -1280,-256 v -128 h -640 -640 v 128 128 h 640 640 z m 0,-768 v -384 h 128 128 v -128 -128 h 256 256 v -128 -128 h 128 128 v -128 -128 h 128 128 v -128 -128 h 128 128 v -128 -128 h 128 128 v -128 -128 h 128 128 v -128 -128 h 128 128 v -128 -128 h 128 128 v -128 -128 h 128 128 v -128 -128 h 128 128 v -128 -128 h 128 128 v -128 -128 h 128 128 v -128 -128 h -128 -128 v -128 -128 h 128 128 v -128 -128 h -128 -128 v -128 -128 h 128 128 v -128 -128 h -128 -128 v -128 -128 h 128 128 v -128 -128 h -128 -128 v 128 128 h -128 -128 v -128 -128 h -128 -128 v 128 128 h -384 -384 v 128 128 h -384 -384 v 128 128 H 9984 9728 V 7680 7424 H 8320 6912 v 256 256 h -256 -256 v -128 -128 h -384 -384 v -128 -128 h -384 -384 v -128 -128 h -128 -128 v 128 128 h -128 -128 v -128 -128 h -128 -128 v 128 128 h 128 128 v 128 128 h -128 -128 v 128 128 h 128 128 v 128 128 h -128 -128 v 128 128 h 128 128 v 128 128 h -128 -128 v 128 128 h 128 128 v 128 128 h 128 128 v 128 128 h 128 128 v 128 128 h 128 128 v 128 128 h 128 128 v 128 128 h 128 128 v 128 128 h 128 128 v 128 128 h 128 128 v 128 128 h 128 128 v 128 128 h 128 128 v 128 128 h 128 128 v 128 128 h 256 256 v 128 128 h 128 128 v 384 384 h 640 640 z M 4352,8832 v -128 h 128 128 v 128 128 h -128 -128 z m 7680,0 v -128 h 128 128 v 128 128 h -128 -128 z M 4352,8320 v -128 h 128 128 v 128 128 h -128 -128 z m 7680,0 v -128 h 128 128 v 128 128 h -128 -128 z M 4352,7808 v -128 h 128 128 v 128 128 h -128 -128 z m 7680,0 v -128 h 128 128 v 128 128 h -128 -128 z m 1792,-3328 v -384 h -128 -128 v -256 -256 h -128 -128 v -256 -256 h 128 128 v 256 256 h 128 128 v 256 256 h 128 128 v 384 384 h -128 -128 z M 3584,2560 v -256 h 128 128 v -128 -128 h 128 128 v -128 -128 h 128 128 v -128 -128 h 128 128 v -128 -128 h 256 256 v -128 -128 h 128 128 v 128 128 h -128 -128 v 128 128 h -256 -256 v 128 128 h -128 -128 v 128 128 h -128 -128 v 128 128 h -128 -128 v 256 256 h -128 -128 z m 9216,0 v -256 h -128 -128 v -128 -128 h -128 -128 v -128 -128 h -128 -128 v -128 -128 h -256 -256 v -128 -128 h -128 -128 v -128 -128 h 128 128 v 128 128 h 256 256 v 128 128 h 128 128 v 128 128 h 128 128 v 128 128 h 128 128 v 128 128 h 128 128 v 256 256 h -128 -128 z M 5632,1024 V 768 h 512 512 V 640 512 h 768 768 v 128 128 h -768 -768 v 128 128 h -384 -384 v 128 128 h -128 -128 z m 5120,128 v -128 h -384 -384 V 896 768 H 9216 8448 V 640 512 h 768 768 v 128 128 h 512 512 v 256 256 h -128 -128 z"
         id="path2" />
    </g>
  </g>
</svg>
